<svg xmlns="http://www.w3.org/2000/svg" xmlns:xlink="http://www.w3.org/1999/xlink" version="1.1" x="0px" y="0px" viewBox="0 0 100 125" enable-background="new 0 0 100 100" xml:space="preserve"><g><path fill="#000000" d="M94.516,63.197c0-4.22-11.373-14.154-21.562-16.602c-0.157-0.038-0.309-0.064-0.463-0.096   c-1.077-6.998-6.023-20.712-21.628-21.2v-9.364c1.02-0.357,1.755-1.327,1.755-2.468c0-1.443-1.174-2.617-2.617-2.617   s-2.617,1.174-2.617,2.617c0,1.141,0.735,2.111,1.755,2.468V25.3c-15.618,0.488-20.56,14.224-21.631,21.217   c-0.154,0.026-0.307,0.047-0.461,0.079C15.335,49.002,5.484,58.618,5.484,63.197c0,4.874,8.704,9.137,21.702,11.469l1.812,2.238   c3.07,3.793,11.314,6.244,21.002,6.244s17.931-2.451,21.002-6.244l1.812-2.238C85.812,72.335,94.516,68.071,94.516,63.197z    M50,12.575c0.493,0,0.894,0.401,0.894,0.893S50.493,14.362,50,14.362s-0.894-0.401-0.894-0.893S49.507,12.575,50,12.575z    M33.449,37.252c3.623-6.225,9.192-9.38,16.551-9.38s12.928,3.156,16.551,9.38c2.94,5.051,3.602,10.52,3.602,12.038   c0,1.463-5.995,5.141-20.153,5.141s-20.153-3.678-20.153-5.141C29.847,47.772,30.509,42.304,33.449,37.252z M50,80.564   c-8.951,0-16.516-2.226-18.992-5.285c0.713,0.101,1.437,0.197,2.171,0.286c0.013,0.002,0.027,0.003,0.04,0.005   c0.732,0.089,1.472,0.173,2.223,0.251c0.005,0.001,0.009,0.001,0.014,0.001c1.515,0.157,3.066,0.29,4.65,0.398   c0.01,0.001,0.021,0.001,0.031,0.002c0.764,0.052,1.535,0.098,2.313,0.137c0.056,0.003,0.113,0.006,0.169,0.008   c0.741,0.037,1.489,0.069,2.242,0.095c0.072,0.003,0.144,0.005,0.216,0.007c0.755,0.025,1.516,0.044,2.282,0.058   c0.059,0.001,0.117,0.002,0.176,0.003c0.816,0.013,1.638,0.021,2.465,0.021s1.649-0.007,2.465-0.021   c0.059-0.001,0.117-0.002,0.176-0.003c0.766-0.013,1.527-0.033,2.282-0.058c0.072-0.002,0.144-0.005,0.216-0.007   c0.753-0.026,1.501-0.058,2.242-0.095c0.056-0.003,0.113-0.006,0.169-0.008c0.778-0.04,1.55-0.086,2.313-0.137   c0.01-0.001,0.021-0.001,0.031-0.002c1.584-0.108,3.135-0.241,4.65-0.398c0.005,0,0.009-0.001,0.014-0.001   c0.75-0.078,1.491-0.162,2.223-0.251c0.013-0.002,0.027-0.003,0.04-0.005c0.734-0.09,1.458-0.185,2.171-0.286   C66.516,78.337,58.951,80.564,50,80.564z M80.611,69.752c-8.135,2.44-19.006,3.784-30.611,3.784s-22.476-1.344-30.611-3.784   C10.776,67.168,8.5,64.334,8.5,63.197c0-0.743,1.336-3.487,5.306-6.801c3.515-2.934,7.79-5.203,11.973-6.388   c0.792,2.496,3.537,4.462,8.19,5.858c4.324,1.297,10.017,2.012,16.031,2.012s11.707-0.714,16.031-2.012   c4.602-1.381,7.338-3.319,8.163-5.777c3.621,1.212,7.591,3.423,11.169,6.251c4.338,3.427,6.019,6.143,6.136,6.885   C91.462,64.381,89.153,67.189,80.611,69.752z"/><path fill="#000000" d="M50,61.693c-1.443,0-2.617,1.174-2.617,2.617c0,1.443,1.174,2.617,2.617,2.617s2.617-1.174,2.617-2.617   C52.617,62.867,51.443,61.693,50,61.693z M50,65.203c-0.493,0-0.894-0.401-0.894-0.894c0-0.493,0.401-0.893,0.894-0.893   s0.894,0.401,0.894,0.893C50.894,64.802,50.493,65.203,50,65.203z"/><path fill="#000000" d="M75.852,57.384c-1.443,0-2.617,1.174-2.617,2.617c0,1.443,1.174,2.617,2.617,2.617   c1.443,0,2.617-1.174,2.617-2.617C78.469,58.558,77.295,57.384,75.852,57.384z M75.852,60.895c-0.493,0-0.894-0.401-0.894-0.894   s0.401-0.893,0.894-0.893s0.894,0.401,0.894,0.893S76.344,60.895,75.852,60.895z"/><path fill="#000000" d="M23.287,57.384c-1.443,0-2.617,1.174-2.617,2.617c0,1.443,1.174,2.617,2.617,2.617s2.617-1.174,2.617-2.617   C25.904,58.558,24.73,57.384,23.287,57.384z M23.287,60.895c-0.493,0-0.893-0.401-0.893-0.894s0.401-0.893,0.893-0.893   s0.893,0.401,0.893,0.893S23.779,60.895,23.287,60.895z"/><path fill="#000000" d="M33.198,49.471c0.476,0,0.862-0.386,0.862-0.862c0-5.422,2.044-10.35,5.61-13.521   c3.385-3.011,7.993-4.271,13.314-3.648c0.47,0.058,0.901-0.283,0.956-0.755c0.056-0.473-0.283-0.901-0.755-0.956   c-5.828-0.682-10.897,0.725-14.66,4.072c-3.932,3.498-6.188,8.896-6.188,14.809C32.337,49.086,32.723,49.471,33.198,49.471z"/></g><text x="0" y="115" fill="#000000" font-size="5px" font-weight="bold" font-family="'Helvetica Neue', Helvetica, Arial-Unicode, Arial, Sans-serif">Created by Miroku Sama</text><text x="0" y="120" fill="#000000" font-size="5px" font-weight="bold" font-family="'Helvetica Neue', Helvetica, Arial-Unicode, Arial, Sans-serif">from the Noun Project</text></svg>